<svg width="23" height="22" viewBox="0 0 23 22" fill="none" xmlns="http://www.w3.org/2000/svg">
<path fill-rule="evenodd" clip-rule="evenodd" d="M3.66179 0.477026C4.50371 0.251417 5.36912 0.751057 5.59468 1.59298C5.82029 2.4349 5.32065 3.30026 4.47873 3.52587C3.63681 3.75148 2.7714 3.25184 2.54584 2.40992C2.32023 1.56799 2.81987 0.702635 3.66179 0.477026ZM22.625 10.2519L19.4871 11.5691V21.5778H22.625V10.2519ZM17.799 13.3125C16.753 13.3125 15.707 13.3125 14.6611 13.3125V21.5778H17.799C17.799 18.2892 17.799 16.6012 17.799 13.3125ZM12.9729 12.2205L9.83504 13.6142V21.5778H12.9729V12.2205ZM16.0438 5.13893C15.5513 5.13893 15.1521 5.53812 15.1521 6.03068C15.1521 6.52325 15.5513 6.92243 16.0438 6.92243C16.5364 6.92243 16.9356 6.52325 16.9356 6.03068C16.9356 5.53812 16.5364 5.13893 16.0438 5.13893ZM20.7002 4.91946C20.583 4.42657 20.3876 3.95576 20.122 3.52437L20.5243 2.61832L19.4561 1.55014L18.5499 1.95265C18.1185 1.68706 17.6479 1.49173 17.1551 1.37445L16.7991 0.449557H15.2885L14.9325 1.37445C14.4397 1.49173 13.9691 1.6871 13.5378 1.95265L12.6315 1.55014L11.5633 2.61832L11.9657 3.52456C11.7001 3.9559 11.5048 4.42662 11.3875 4.91942L10.4627 5.27539V6.78603L11.3874 7.14195C11.5046 7.63484 11.7 8.10565 11.9657 8.53704L11.5633 9.44309L12.6315 10.5113L13.5378 10.1088C13.9691 10.3744 14.4397 10.5697 14.9325 10.687L15.2885 11.6119H16.7991L17.155 10.6872C17.6479 10.5699 18.1187 10.3745 18.5501 10.1089L19.4562 10.5113L20.5244 9.44309L20.1219 8.53676C20.3874 8.10546 20.5828 7.63479 20.7001 7.14204L21.6249 6.78603V5.27539L20.7002 4.91946ZM16.0438 9.30237C14.2368 9.30237 12.7722 7.83776 12.7722 6.03068C12.7722 4.22365 14.2368 2.75899 16.0438 2.75899C17.8509 2.75899 19.3155 4.2236 19.3155 6.03068C19.3155 7.83771 17.8509 9.30237 16.0438 9.30237ZM0.183058 18.0592H3.32087V21.5778H0.183058V18.0592ZM8.14689 15.9057C7.10092 15.9057 6.05495 15.9057 5.00898 15.9057V21.5778H8.14689C8.14689 18.2892 8.14689 19.1943 8.14689 15.9057ZM7.90843 4.44551C8.38112 4.23045 8.93865 4.43932 9.15372 4.91201C9.36873 5.3847 9.15985 5.94228 8.68717 6.15729L6.64318 7.09011C6.39761 7.20181 6.12915 7.19909 5.89773 7.10445L4.64603 6.61957L4.61139 8.61401L6.85956 9.66111C7.19223 9.81565 7.39192 10.14 7.4035 10.4832L7.51417 13.9896C7.53128 14.5091 7.12407 14.944 6.60465 14.9611C6.08523 14.9783 5.65028 14.571 5.63317 14.0517L5.54092 11.1223L4.58471 10.6769L4.58162 10.9154C4.57923 11.1208 4.51112 11.3101 4.3975 11.4635L1.83981 15.1992C1.54623 15.6272 0.961277 15.7362 0.533261 15.4426C0.105293 15.149 -0.00369164 14.564 0.28984 14.136L2.7047 10.609C2.72664 8.90928 2.7609 6.94273 2.78284 5.243C2.79085 4.59495 3.44828 4.13848 4.06375 4.37773L6.22361 5.21431L7.90843 4.44551Z" fill="white"/>
</svg>
