<svg width="24" height="24" viewBox="0 0 24 24" fill="none" xmlns="http://www.w3.org/2000/svg">
<g clip-path="url(#clip0_18_4909)">
<path d="M20.4853 3.51471C18.2188 1.24823 15.2053 0 12 0C8.79474 0 5.78119 1.24823 3.51471 3.51471C1.24823 5.78119 0 8.79474 0 12C0 15.2053 1.24823 18.2188 3.51471 20.4853C5.78119 22.7518 8.79474 24 12 24C15.2053 24 18.2188 22.7518 20.4853 20.4853C22.7518 18.2188 24 15.2053 24 12C24 8.79474 22.7518 5.78119 20.4853 3.51471ZM5.20807 20.1233C5.60431 16.7139 8.53564 14.0815 12 14.0815C13.8263 14.0815 15.5436 14.7931 16.8354 16.0847C17.9268 17.1762 18.6151 18.6013 18.7921 20.1231C16.9519 21.6643 14.5825 22.5938 12 22.5938C9.41748 22.5938 7.04828 21.6645 5.20807 20.1233ZM12 12.6332C9.99042 12.6332 8.35529 10.998 8.35529 8.98846C8.35529 6.9787 9.99042 5.34375 12 5.34375C14.0096 5.34375 15.6447 6.9787 15.6447 8.98846C15.6447 10.998 14.0096 12.6332 12 12.6332ZM20.0024 18.9344C19.6441 17.4897 18.8969 16.1576 17.8297 15.0905C16.9655 14.2262 15.943 13.5778 14.8279 13.1715C16.1684 12.2624 17.051 10.7265 17.051 8.98846C17.051 6.20343 14.785 3.9375 12 3.9375C9.21497 3.9375 6.94904 6.20343 6.94904 8.98846C6.94904 10.7274 7.83234 12.2639 9.17395 13.1728C8.14801 13.5467 7.19861 14.1248 6.38177 14.8857C5.19891 15.9873 4.3775 17.3919 3.99664 18.9333C2.38367 17.0739 1.40625 14.649 1.40625 12C1.40625 6.15857 6.15857 1.40625 12 1.40625C17.8414 1.40625 22.5938 6.15857 22.5938 12C22.5938 14.6495 21.616 17.075 20.0024 18.9344Z" fill="#04213E"/>
</g>
<defs>
<clipPath id="clip0_18_4909">
<rect width="24" height="24" fill="white"/>
</clipPath>
</defs>
</svg>
