<svg width="24" height="24" viewBox="0 0 24 24" fill="none" xmlns="http://www.w3.org/2000/svg">
<path d="M20.4075 12.78C20.4077 14.14 20.0779 15.4797 19.4465 16.6843C18.815 17.8889 17.9008 18.9222 16.7822 19.6958C15.6636 20.4694 14.3741 20.9601 13.0242 21.1258C11.6743 21.2914 10.3044 21.1272 9.03193 20.647C7.75948 20.1669 6.6225 19.3853 5.71853 18.3691C4.81455 17.353 4.17057 16.1328 3.84184 14.8131C3.5131 13.4934 3.50941 12.1137 3.8311 10.7922C4.15279 9.47081 4.79024 8.24714 5.68878 7.22622C5.70507 7.20616 5.72566 7.19002 5.74903 7.17898C5.77239 7.16795 5.79794 7.1623 5.82378 7.16247C5.87463 7.16378 5.92354 7.18229 5.96253 7.21497L6.99003 8.24247C7.02275 8.27644 7.04164 8.32138 7.04303 8.36852C7.04441 8.41566 7.02819 8.46163 6.99753 8.49747C6.0279 9.63307 5.47307 11.0645 5.42409 12.557C5.37511 14.0494 5.83489 15.5142 6.72798 16.7109C7.62107 17.9076 8.89443 18.7652 10.3391 19.143C11.7838 19.5208 13.3139 19.3962 14.6785 18.7899C16.0431 18.1835 17.161 17.1313 17.8489 15.8059C18.5367 14.4805 18.7536 12.9607 18.464 11.4958C18.1744 10.0309 17.3954 8.70802 16.2549 7.74414C15.1144 6.78025 13.6802 6.23266 12.1875 6.19122V7.46997C12.1873 7.50279 12.1785 7.53498 12.162 7.56332C12.1455 7.59167 12.1218 7.61518 12.0933 7.6315C12.0648 7.64783 12.0326 7.65639 11.9997 7.65634C11.9669 7.65629 11.9347 7.64763 11.9063 7.63122L8.03628 5.39622C8.00783 5.37999 7.98418 5.35653 7.96772 5.32821C7.95127 5.29989 7.94261 5.26772 7.94261 5.23497C7.94261 5.20222 7.95127 5.17005 7.96772 5.14173C7.98418 5.11341 8.00783 5.08994 8.03628 5.07372L11.9063 2.83872C11.9348 2.82226 11.9671 2.8136 12 2.8136C12.0329 2.8136 12.0653 2.82226 12.0938 2.83872C12.1221 2.85508 12.1457 2.87857 12.1621 2.90686C12.1786 2.93515 12.1873 2.96725 12.1875 2.99997V4.37247C14.3837 4.42452 16.4725 5.33286 18.0083 6.90363C19.544 8.4744 20.405 10.5832 20.4075 12.78Z" fill="#04213E"/>
</svg>
