<svg width="25" height="24" viewBox="0 0 25 24" fill="none" xmlns="http://www.w3.org/2000/svg">
<g clip-path="url(#clip0_16_313)">
<path d="M4.82507 2.3999H1.22507C0.893726 2.3999 0.625 2.66863 0.625 2.99998V6.59998C0.625 6.93132 0.893726 7.20005 1.22507 7.20005C1.55642 7.20005 1.82493 6.93132 1.82493 6.59998V3.60005H4.82507C5.15642 3.60005 5.42493 3.33132 5.42493 2.99998C5.42493 2.66863 5.15642 2.3999 4.82507 2.3999Z" fill="white"/>
<path d="M4.82507 20.3998H1.82493V17.3999C1.82493 17.0685 1.55642 16.7998 1.22507 16.7998C0.893726 16.7998 0.625 17.0685 0.625 17.3999V20.9999C0.625 21.3312 0.893726 21.6 1.22507 21.6H4.82507C5.15642 21.6 5.42493 21.3312 5.42493 20.9999C5.42493 20.6685 5.15642 20.3998 4.82507 20.3998Z" fill="white"/>
<path d="M24.025 2.3999H20.425C20.0937 2.3999 19.825 2.66863 19.825 2.99998C19.825 3.33132 20.0937 3.60005 20.425 3.60005H23.425V6.59998C23.425 6.93132 23.6937 7.20005 24.025 7.20005C24.3564 7.20005 24.6251 6.93132 24.6251 6.59998V2.99998C24.6251 2.66863 24.3564 2.3999 24.025 2.3999Z" fill="white"/>
<path d="M24.025 16.7998C23.6937 16.7998 23.425 17.0685 23.425 17.3999V20.3998H20.425C20.0937 20.3998 19.825 20.6685 19.825 20.9999C19.825 21.3312 20.0937 21.6 20.425 21.6H24.025C24.3564 21.6 24.6251 21.3312 24.6251 20.9999V17.3999C24.6251 17.0685 24.3564 16.7998 24.025 16.7998Z" fill="white"/>
<path d="M4.82517 6C4.49382 6 4.2251 6.26873 4.2251 6.60007V17.4001C4.2251 17.7314 4.49382 18.0001 4.82517 18.0001C5.15652 18.0001 5.42502 17.7314 5.42502 17.4001V6.60007C5.42502 6.26873 5.15652 6 4.82517 6Z" fill="white"/>
<path d="M7.22485 6H8.425C8.75635 6 9.02485 6.26873 9.02485 6.60007V17.4001C9.02485 17.7314 8.75635 18.0001 8.425 18.0001H7.22485C6.89351 18.0001 6.625 17.7314 6.625 17.4001V6.60007C6.625 6.26873 6.89351 6 7.22485 6Z" fill="white"/>
<path d="M10.825 6C10.4936 6 10.2251 6.26873 10.2251 6.60007V17.4001C10.2251 17.7314 10.4936 18.0001 10.825 18.0001C11.1563 18.0001 11.425 17.7314 11.425 17.4001V6.60007C11.425 6.26873 11.1563 6 10.825 6Z" fill="white"/>
<path d="M13.2251 6H14.425C14.7563 6 15.0251 6.26873 15.0251 6.60007V17.4001C15.0251 17.7314 14.7563 18.0001 14.425 18.0001H13.2251C12.8937 18.0001 12.625 17.7314 12.625 17.4001V6.60007C12.625 6.26873 12.8937 6 13.2251 6Z" fill="white"/>
<path d="M16.8249 6C16.4936 6 16.2249 6.26873 16.2249 6.60007V17.4001C16.2249 17.7314 16.4936 18.0001 16.8249 18.0001C17.1563 18.0001 17.425 17.7314 17.425 17.4001V6.60007C17.425 6.26873 17.1563 6 16.8249 6Z" fill="white"/>
<path d="M19.2251 6H20.425C20.7563 6 21.0251 6.26873 21.0251 6.60007V17.4001C21.0251 17.7314 20.7563 18.0001 20.425 18.0001H19.2251C18.8937 18.0001 18.625 17.7314 18.625 17.4001V6.60007C18.625 6.26873 18.8937 6 19.2251 6Z" fill="white"/>
</g>
<defs>
<clipPath id="clip0_16_313">
<rect width="24" height="24" fill="white" transform="translate(0.625)"/>
</clipPath>
</defs>
</svg>
