<svg width="25" height="24" viewBox="0 0 25 24" fill="none" xmlns="http://www.w3.org/2000/svg">
<path d="M22.808 9.394L20.928 9.155C20.773 8.678 20.582 8.218 20.359 7.781L21.52 6.286C21.99 5.681 21.935 4.827 21.398 4.307L19.823 2.732C19.298 2.19 18.444 2.136 17.838 2.605L16.345 3.766C15.908 3.543 15.448 3.352 14.97 3.197L14.731 1.32C14.641 0.567 14.002 0 13.245 0H11.005C10.248 0 9.609 0.567 9.519 1.317L9.28 3.197C8.802 3.352 8.342 3.542 7.905 3.766L6.411 2.605C5.807 2.136 4.953 2.19 4.432 2.727L2.857 4.301C2.315 4.827 2.26 5.681 2.73 6.287L3.891 7.781C3.667 8.218 3.477 8.678 3.322 9.155L1.445 9.394C0.692 9.484 0.125 10.123 0.125 10.88V13.12C0.125 13.877 0.692 14.516 1.442 14.606L3.322 14.845C3.477 15.322 3.668 15.782 3.891 16.219L2.73 17.714C2.26 18.319 2.315 19.173 2.852 19.693L4.427 21.268C4.953 21.809 5.806 21.863 6.412 21.394L7.906 20.233C8.343 20.457 8.803 20.648 9.28 20.802L9.519 22.678C9.609 23.433 10.248 24 11.005 24H13.245C14.002 24 14.641 23.433 14.731 22.683L14.97 20.803C15.447 20.648 15.907 20.457 16.344 20.234L17.839 21.395C18.444 21.865 19.298 21.81 19.818 21.273L21.393 19.698C21.935 19.172 21.99 18.319 21.52 17.713L20.359 16.219C20.583 15.782 20.774 15.322 20.928 14.845L22.804 14.606C23.557 14.516 24.124 13.877 24.124 13.12V10.88C24.125 10.123 23.558 9.484 22.808 9.394ZM12.125 17C9.368 17 7.125 14.757 7.125 12C7.125 9.243 9.368 7 12.125 7C14.882 7 17.125 9.243 17.125 12C17.125 14.757 14.882 17 12.125 17Z" fill="white"/>
</svg>
