<svg width="25" height="24" viewBox="0 0 25 24" fill="none" xmlns="http://www.w3.org/2000/svg">
<path fill-rule="evenodd" clip-rule="evenodd" d="M5.16333 7.43766L5.8382 1.32167C5.92256 0.717102 6.35841 0.28125 6.89268 0.28125H12.9243C13.4586 0.28125 13.8804 0.717102 13.9788 1.32167L14.6537 7.40955C13.2617 6.6222 11.6449 6.18635 9.91553 6.18635C8.18618 6.18635 6.56931 6.63626 5.16333 7.43766ZM13.0087 5.51148C12.9806 5.51148 12.9524 5.51148 12.9243 5.48336C10.9841 4.85067 8.86105 4.85067 6.9208 5.48336C6.80832 5.51148 6.7099 5.48336 6.62554 5.42712C6.52713 5.35682 6.49901 5.24434 6.49901 5.11781L6.9911 1.64505C7.01922 1.49039 7.1317 1.36385 7.31447 1.36385H12.5588C12.6994 1.36385 12.854 1.49039 12.8821 1.64505L13.3742 5.11781C13.4023 5.24434 13.3461 5.3287 13.2477 5.42712C13.1633 5.48336 13.093 5.51148 13.0087 5.51148Z" fill="white"/>
<path fill-rule="evenodd" clip-rule="evenodd" d="M9.66235 23.7048C4.79767 23.5642 0.875 19.5712 0.875 14.6643C0.875 9.67313 4.92421 5.60986 9.91542 5.60986C14.9207 5.60986 18.9699 9.67313 18.9699 14.6643C18.9699 14.8893 18.9558 15.1283 18.9418 15.3533C18.7309 15.6907 18.6184 16.0844 18.6184 16.5062V17.2092C18.5762 17.3216 18.5481 17.4341 18.5059 17.5466H13.3882V16.5062C13.3882 15.3252 12.404 14.341 11.223 14.341C10.295 14.341 9.47957 14.9315 9.18431 15.7751C8.48133 16.0422 7.96112 16.6468 7.73616 17.3779C6.97693 17.631 6.45672 18.3761 6.45672 19.2338V19.4165C6.45672 20.2601 6.99099 21.0053 7.75022 21.2724C7.97518 21.9614 8.48133 22.5378 9.14213 22.819C9.25461 23.1564 9.42333 23.4517 9.66235 23.7048ZM3.02614 14.9877C2.84337 14.9877 2.68871 14.8471 2.68871 14.6643C2.68871 12.3867 3.71507 10.3058 5.52878 8.91391C5.68344 8.78737 5.89433 8.81549 5.99275 8.97014C6.10523 9.1248 6.07711 9.3357 5.92245 9.42006C4.29152 10.6714 3.34952 12.5694 3.34952 14.6643C3.34952 14.8471 3.20892 14.9877 3.02614 14.9877ZM8.17201 8.30934C8.01735 8.30934 7.89082 8.21092 7.83458 8.07032C7.77834 7.88754 7.89082 7.70477 8.07359 7.67665C8.67816 7.52199 9.28273 7.42357 9.8873 7.42357C10.0701 7.42357 10.2247 7.57823 10.2247 7.76101C10.2247 7.94378 10.0701 8.09844 9.8873 8.09844C9.31085 8.09844 8.77658 8.15468 8.22825 8.30934C8.22825 8.30934 8.20013 8.30934 8.17201 8.30934Z" fill="white"/>
<path fill-rule="evenodd" clip-rule="evenodd" d="M19.5745 20.4993H12.4322C12.2494 20.4993 12.0947 20.3446 12.0947 20.1618V18.5309C12.0947 18.3481 12.2494 18.2075 12.4322 18.2075H19.5745C19.7573 18.2075 19.9119 18.3481 19.9119 18.5309V20.1618C19.9119 20.3446 19.7573 20.4993 19.5745 20.4993Z" fill="white"/>
<path fill-rule="evenodd" clip-rule="evenodd" d="M11.223 23.7048C10.3795 23.7048 9.70459 23.0159 9.70459 22.2004V16.5062C9.70459 15.6627 10.4076 14.9878 11.223 14.9878C12.0385 14.9878 12.7415 15.6908 12.7415 16.5062V22.2004C12.7696 23.044 12.0666 23.7048 11.223 23.7048Z" fill="white"/>
<path fill-rule="evenodd" clip-rule="evenodd" d="M9.05771 22.0176C8.59374 21.6802 8.28442 21.1178 8.28442 20.4992V18.109C8.28442 17.4763 8.59374 16.914 9.05771 16.5906V22.0176Z" fill="white"/>
<path fill-rule="evenodd" clip-rule="evenodd" d="M7.63779 20.4711C7.31441 20.2321 7.10352 19.8384 7.10352 19.4166V19.2338C7.10352 18.7839 7.31441 18.3902 7.63779 18.1653V20.4711Z" fill="white"/>
<path fill-rule="evenodd" clip-rule="evenodd" d="M20.7556 23.7048C21.5992 23.7048 22.2741 23.0159 22.2741 22.2004V16.5062C22.2741 15.6627 21.5711 14.9878 20.7556 14.9878C19.9401 14.9878 19.2371 15.6908 19.2371 16.5062V22.2004C19.209 23.044 19.912 23.7048 20.7556 23.7048Z" fill="white"/>
<path fill-rule="evenodd" clip-rule="evenodd" d="M22.9207 22.0176C23.3846 21.6802 23.6939 21.1178 23.6939 20.4992V18.109C23.6939 17.4763 23.3846 16.914 22.9207 16.5906V22.0176Z" fill="white"/>
<path fill-rule="evenodd" clip-rule="evenodd" d="M24.3408 20.4711C24.6642 20.2321 24.8751 19.8384 24.8751 19.4166V19.2338C24.8751 18.7839 24.6642 18.3902 24.3408 18.1653V20.4711Z" fill="white"/>
</svg>
